<svg width="60" height="61" viewBox="0 0 60 61" fill="none" xmlns="http://www.w3.org/2000/svg">
<path d="M48.077 60.011C45.4622 60.011 41.7891 59.0653 36.2889 55.9923C29.6005 52.2416 24.4271 48.7788 17.7749 42.144C11.361 35.7342 8.23987 31.5842 3.87157 23.6353C-1.06337 14.6602 -0.222126 9.9557 0.718245 7.94502C1.83812 5.54185 3.49113 4.10451 5.62773 2.67788C6.8413 1.88276 8.12557 1.20117 9.46423 0.641746C9.59819 0.584144 9.72276 0.529223 9.83395 0.479659C10.497 0.180937 11.5017 -0.270494 12.7743 0.211747C13.6236 0.530562 14.3818 1.18293 15.5686 2.35504C18.0026 4.75553 21.3287 10.1017 22.5557 12.7273C23.3796 14.4968 23.9248 15.6649 23.9261 16.975C23.9261 18.5088 23.1545 19.6916 22.2182 20.9682C22.0427 21.208 21.8685 21.4371 21.6998 21.6594C20.6804 22.999 20.4567 23.3861 20.604 24.0773C20.9027 25.4665 23.1304 29.6017 26.7914 33.2547C30.4524 36.9076 34.4684 38.9947 35.8629 39.2921C36.5836 39.4461 36.9788 39.213 38.3612 38.1574C38.5595 38.0061 38.7631 37.8493 38.9761 37.6926C40.404 36.6304 41.5319 35.8789 43.0296 35.8789H43.0376C44.341 35.8789 45.4569 36.4441 47.3054 37.3765C49.7167 38.5928 55.2236 41.8761 57.6388 44.3127C58.8136 45.4969 59.4686 46.2524 59.7888 47.1003C60.271 48.3769 59.8169 49.3776 59.5209 50.0474C59.4713 50.1586 59.4164 50.2805 59.3588 50.4158C58.795 51.752 58.1093 53.0336 57.3106 54.2442C55.8867 56.3741 54.444 58.0231 52.0354 59.1443C50.7986 59.7293 49.4451 60.0257 48.077 60.011Z" fill="black"/>
</svg>
